<?xml version="1.0" encoding="utf-8"?>
<!-- Generator: Adobe Illustrator 16.0.0, SVG Export Plug-In . SVG Version: 6.00 Build 0)  -->
<!DOCTYPE svg PUBLIC "-//W3C//DTD SVG 1.1//EN" "http://www.w3.org/Graphics/SVG/1.1/DTD/svg11.dtd">
<svg version="1.1" id="Ebene_1" xmlns="http://www.w3.org/2000/svg" xmlns:xlink="http://www.w3.org/1999/xlink" x="0px" y="0px"
	 width="200.875px" height="200.877px" viewBox="0 0 200.875 200.877" enable-background="new 0 0 200.875 200.877"
	 xml:space="preserve">
<g>
	<g>
		<path fill="#FFFFFF" d="M0,0v200.877h200.875V0H0z M195.875,195.877H5V5h190.875V195.877z"/>
	</g>
</g>
<g>
	<path fill="#FFFFFF" d="M55.637,97.438h-4.859L47.74,89.5H35.794l-2.997,7.938h-4.859l12.473-30.373h2.753L55.637,97.438z
		 M46.323,85.775l-4.536-11.987l-4.576,11.987H46.323z"/>
	<path fill="#FFFFFF" d="M88.887,93.227c-2.794,3.078-6.803,5.022-11.217,5.022c-8.545,0-15.43-7.168-15.43-15.997
		c0-8.788,6.885-15.956,15.43-15.956c4.414,0,8.423,1.944,11.258,5.062l-2.956,2.957c-0.203-0.284-0.405-0.527-0.648-0.77
		c-2.065-2.268-4.778-3.523-7.653-3.523c-2.876,0-5.63,1.255-7.654,3.523c-2.105,2.308-3.28,5.426-3.28,8.707
		c0,3.321,1.175,6.399,3.28,8.748c2.024,2.268,4.778,3.523,7.654,3.523c2.875,0,5.588-1.255,7.653-3.523
		c0.202-0.243,0.405-0.486,0.607-0.729L88.887,93.227z"/>
	<path fill="#FFFFFF" d="M135.623,67.066v30.373h-4.495v-22.8l-11.703,22.8h-2.552l-11.703-22.8v22.8h-4.496V67.066h0.608h4.817
		l12.028,23.488l12.026-23.488h4.82H135.623z"/>
	<path fill="#FFFFFF" d="M169.968,93.713v3.726H148.99V67.066h20.207v3.726h-15.713v8.99h12.838v3.766h-12.838v10.165H169.968z"/>
</g>
<g>
	<path fill="#FFFFFF" d="M43.368,118.875c0,3.815-2.993,6.913-6.668,6.913s-6.668-3.098-6.668-6.913s2.993-6.896,6.668-6.896
		S43.368,115.06,43.368,118.875z M33.392,115.112c-0.91,0.998-1.417,2.346-1.417,3.763c0,1.436,0.507,2.766,1.417,3.78
		c0.893,0.98,2.065,1.523,3.308,1.523s2.433-0.543,3.308-1.523c0.91-1.015,1.418-2.345,1.418-3.78c0-1.417-0.508-2.765-1.418-3.763
		c-0.875-0.98-2.065-1.522-3.308-1.522S34.285,114.132,33.392,115.112z"/>
	<path fill="#FFFFFF" d="M53.29,125.438h-1.803v-4.988c0-1.75-0.542-2.52-2.03-2.52s-2.363,0.77-2.363,2.52v4.988h-1.803v-8.646
		h1.803v1.225c0.228-0.805,1.33-1.452,2.363-1.54c2.695-0.21,3.833,1.138,3.833,3.973V125.438z"/>
	<path fill="#FFFFFF" d="M57.734,125.438h-1.82v-13.459h1.82V125.438z"/>
	<path fill="#FFFFFF" d="M62.511,113.625c0,0.56-0.438,0.997-0.998,0.997c-0.542,0-0.98-0.438-0.98-0.997
		c0-0.543,0.438-0.98,0.98-0.98C62.074,112.645,62.511,113.082,62.511,113.625z M62.424,125.438h-1.803v-8.646h1.803V125.438z"/>
	<path fill="#FFFFFF" d="M73.135,125.438h-1.803v-4.988c0-1.75-0.542-2.52-2.03-2.52s-2.363,0.77-2.363,2.52v4.988h-1.803v-8.646
		h1.803v1.225c0.228-0.805,1.33-1.452,2.363-1.54c2.695-0.21,3.833,1.138,3.833,3.973V125.438z"/>
	<path fill="#FFFFFF" d="M83.74,121.78h-6.808c0.245,1.436,1.33,2.538,2.643,2.538c0.823,0,1.558-0.438,2.048-1.138l1.243,1.12
		c-0.823,0.91-1.996,1.487-3.291,1.487c-2.503,0-4.516-2.082-4.516-4.655c0-2.572,1.943-4.673,4.341-4.673
		c2.135,0,3.903,1.663,4.27,3.833c0.053,0.28,0.07,0.56,0.07,0.84V121.78z M81.85,120.293c-0.298-1.348-1.278-2.346-2.45-2.346
		c-1.173,0-2.153,0.998-2.433,2.346H81.85z"/>
	<path fill="#FFFFFF" d="M106.192,112.312v13.126h-1.942v-9.854l-5.058,9.854h-1.104l-5.058-9.854v9.854h-1.942v-13.126h0.263h2.082
		l5.198,10.15l5.198-10.15h2.083H106.192z"/>
	<path fill="#FFFFFF" d="M115.991,119.226v6.213h-1.803v-0.771c-0.63,0.858-1.505,1.104-2.45,1.104c-2.24,0-3.272-1.155-3.272-2.695
		c0-2.153,1.61-3.099,3.272-3.099c1.348,0,1.698,0,2.45,0v-0.752c0-0.543-0.21-1.295-1.68-1.295c-0.822,0-1.575,0.438-2.065,1.12
		l-1.242-1.12c0.822-0.91,1.995-1.488,3.308-1.488C114.994,116.442,115.991,117.947,115.991,119.226z M114.188,121.448
		c-0.542,0-0.893,0-2.205,0c-1.067,0-1.715,0.718-1.715,1.697c0,0.806,0.787,1.155,1.715,1.155c1.663,0,2.205-0.963,2.205-1.558
		V121.448z"/>
	<path fill="#FFFFFF" d="M126.702,116.793v8.785c0,2.573-2.013,4.656-4.498,4.656c-1.295,0-2.468-0.578-3.291-1.488l1.243-1.12
		c0.49,0.7,1.225,1.138,2.048,1.138c1.487,0,2.695-1.435,2.695-3.186v-0.63c-0.578,0.473-1.471,0.823-2.311,0.823
		c-2.485,0-4.498-2.083-4.498-4.656c0-2.572,2.013-4.673,4.498-4.673c0.84,0,1.628,0.315,2.311,0.84v-0.489H126.702z
		 M124.899,122.743c0.245-0.473,0.385-1.032,0.385-1.628c0-0.595-0.14-1.155-0.385-1.645c-0.473-0.928-1.33-1.54-2.311-1.54
		c-1.487,0-2.695,1.417-2.695,3.185c0,1.75,1.208,3.186,2.695,3.186C123.569,124.301,124.427,123.671,124.899,122.743z"/>
	<path fill="#FFFFFF" d="M136.326,119.226v6.213h-1.803v-0.771c-0.63,0.858-1.505,1.104-2.45,1.104c-2.24,0-3.272-1.155-3.272-2.695
		c0-2.153,1.61-3.099,3.272-3.099c1.348,0,1.698,0,2.45,0v-0.752c0-0.543-0.21-1.295-1.68-1.295c-0.823,0-1.575,0.438-2.065,1.12
		l-1.242-1.12c0.822-0.91,1.995-1.488,3.308-1.488C135.329,116.442,136.326,117.947,136.326,119.226z M134.523,121.448
		c-0.542,0-0.893,0-2.205,0c-1.067,0-1.715,0.718-1.715,1.697c0,0.806,0.787,1.155,1.715,1.155c1.663,0,2.205-0.963,2.205-1.558
		V121.448z"/>
	<path fill="#FFFFFF" d="M144.638,118.333l-4.357,5.636h4.357v1.47h-6.213v-1.646l4.341-5.53h-4.341v-1.47h6.213V118.333z"/>
	<path fill="#FFFFFF" d="M149.065,113.625c0,0.56-0.438,0.997-0.998,0.997c-0.542,0-0.979-0.438-0.979-0.997
		c0-0.543,0.438-0.98,0.979-0.98C148.628,112.645,149.065,113.082,149.065,113.625z M148.978,125.438h-1.803v-8.646h1.803V125.438z"
		/>
	<path fill="#FFFFFF" d="M159.688,125.438h-1.803v-4.988c0-1.75-0.543-2.52-2.03-2.52s-2.363,0.77-2.363,2.52v4.988h-1.802v-8.646
		h1.802v1.225c0.228-0.805,1.331-1.452,2.363-1.54c2.695-0.21,3.833,1.138,3.833,3.973V125.438z"/>
	<path fill="#FFFFFF" d="M170.293,121.78h-6.809c0.245,1.436,1.33,2.538,2.644,2.538c0.822,0,1.558-0.438,2.047-1.138l1.243,1.12
		c-0.823,0.91-1.995,1.487-3.29,1.487c-2.503,0-4.516-2.082-4.516-4.655c0-2.572,1.942-4.673,4.34-4.673
		c2.136,0,3.903,1.663,4.271,3.833c0.053,0.28,0.07,0.56,0.07,0.84V121.78z M168.402,120.293c-0.297-1.348-1.277-2.346-2.45-2.346
		c-1.172,0-2.152,0.998-2.433,2.346H168.402z"/>
</g>
</svg>
