<?xml version="1.0" encoding="utf-8"?>
<!-- Generator: Adobe Illustrator 16.0.0, SVG Export Plug-In . SVG Version: 6.00 Build 0)  -->
<!DOCTYPE svg PUBLIC "-//W3C//DTD SVG 1.0//EN" "http://www.w3.org/TR/2001/REC-SVG-20010904/DTD/svg10.dtd">
<svg version="1.0" id="Ebene_1" xmlns="http://www.w3.org/2000/svg" xmlns:xlink="http://www.w3.org/1999/xlink" x="0px" y="0px"
	 width="158.762px" height="163.174px" viewBox="0 0 158.762 163.174" enable-background="new 0 0 158.762 163.174"
	 xml:space="preserve">
<path fill="#2A465B" d="M158.762,79.381c0-43.84-35.54-79.381-79.38-79.381C35.54,0,0,35.541,0,79.381
	c0,43.842,35.54,79.381,79.382,79.381c10.458,0,20.435-2.041,29.578-5.717l21.273,9.986c0.203,0.096,0.42,0.143,0.637,0.143
	c0.007,0,0.012-0.002,0.02,0c0.829,0,1.5-0.672,1.5-1.5c0-0.129-0.016-0.252-0.045-0.371l-1.804-21.244
	C147.793,125.499,158.762,103.725,158.762,79.381z"/>
</svg>
