<?xml version="1.0" encoding="UTF-8" standalone="no"?>
<svg
   width="17"
   height="14"
   viewBox="0 0 17 14"
   fill="none"
   version="1.1"
   id="svg1"
   sodipodi:docname="Group 5.svg"
   inkscape:version="1.3.1 (9b9bdc1480, 2023-11-25, custom)"
   xmlns:inkscape="http://www.inkscape.org/namespaces/inkscape"
   xmlns:sodipodi="http://sodipodi.sourceforge.net/DTD/sodipodi-0.dtd"
   xmlns="http://www.w3.org/2000/svg"
   xmlns:svg="http://www.w3.org/2000/svg">
  <defs
     id="defs1" />
  <sodipodi:namedview
     id="namedview1"
     pagecolor="#ffffff"
     bordercolor="#999999"
     borderopacity="1"
     inkscape:showpageshadow="2"
     inkscape:pageopacity="0"
     inkscape:pagecheckerboard="0"
     inkscape:deskcolor="#d1d1d1"
     inkscape:zoom="42.964286"
     inkscape:cx="8.2510391"
     inkscape:cy="8.9725686"
     inkscape:window-width="2488"
     inkscape:window-height="1403"
     inkscape:window-x="2632"
     inkscape:window-y="0"
     inkscape:window-maximized="1"
     inkscape:current-layer="svg1" />
  <path
     style="fill:#000000;stroke-width:0.0232751"
     d="M 7.6633428,8.6642085 5.6908098,6.6916753 3.8055747,8.5768027 1.9203397,10.46193 1.3965084,9.9384869 0.87267714,9.4150435 2.7580347,7.5295796 4.6433922,5.6441157 2.7581101,3.7589413 0.87282802,1.873767 1.3965188,1.3500763 1.9202096,0.82638548 3.8054914,2.7115596 5.6907733,4.5967337 7.5876274,2.699987 9.4844812,0.8032401 10.008313,1.3266835 10.532144,1.8501268 8.6467868,3.7355903 c -1.0369463,1.037005 -1.885357,1.8959368 -1.885357,1.9087374 0,0.0128 0.8850062,0.9082335 1.9666806,1.9898509 l 1.9666806,1.9665775 -0.517609,0.5179929 c -0.2846847,0.284896 -0.5229405,0.517992 -0.5294573,0.517992 -0.00652,0 -0.8994887,-0.8876393 -1.9843819,-1.9725325 z"
     id="path1" />
  <path
     style="fill:#000000;stroke-width:0.0232751"
     d="m 11.928641,12.586035 1.28e-4,-0.680798 0.913421,-0.779469 c 1.121058,-0.956656 1.372411,-1.2000136 1.493489,-1.4459816 0.07149,-0.1452437 0.08955,-0.2108988 0.100026,-0.3637119 0.01709,-0.2492961 -0.0033,-0.3401402 -0.100588,-0.4478051 -0.211491,-0.2340955 -0.692639,-0.2174979 -0.911203,0.031433 -0.09836,0.1120254 -0.151966,0.2200932 -0.215098,0.4336312 -0.02839,0.09601 -0.05489,0.1780709 -0.0589,0.1823576 -0.0065,0.00691 -1.363208,-0.5033527 -1.37904,-0.5186503 -0.01035,-0.010002 0.135647,-0.4123071 0.186261,-0.5132501 0.140311,-0.2798279 0.42834,-0.6129438 0.6785,-0.7847102 0.187625,-0.1288278 0.475863,-0.2600917 0.712658,-0.324545 0.177669,-0.04836 0.246482,-0.053724 0.674979,-0.05262 0.564871,0.00146 0.706552,0.030251 1.087852,0.2210948 0.650243,0.325452 0.987896,0.921665 0.95373,1.6840554 -0.01492,0.33288 -0.06976,0.5459267 -0.209914,0.8155222 -0.222664,0.428298 -0.559311,0.778677 -1.366165,1.421893 l -0.523691,0.417481 1.111388,0.006 1.111389,0.006 v 0.686391 0.686391 h -2.129676 -2.129676 z"
     id="path2" />
</svg>
