<?xml version="1.0" encoding="UTF-8" standalone="no"?>
<svg
   width="17"
   height="14"
   viewBox="0 0 17 14"
   fill="none"
   version="1.1"
   id="svg1"
   sodipodi:docname="Group 6.svg"
   inkscape:version="1.3.1 (9b9bdc1480, 2023-11-25, custom)"
   xmlns:inkscape="http://www.inkscape.org/namespaces/inkscape"
   xmlns:sodipodi="http://sodipodi.sourceforge.net/DTD/sodipodi-0.dtd"
   xmlns="http://www.w3.org/2000/svg"
   xmlns:svg="http://www.w3.org/2000/svg">
  <defs
     id="defs1" />
  <sodipodi:namedview
     id="namedview1"
     pagecolor="#ffffff"
     bordercolor="#999999"
     borderopacity="1"
     inkscape:showpageshadow="2"
     inkscape:pageopacity="0"
     inkscape:pagecheckerboard="0"
     inkscape:deskcolor="#d1d1d1"
     inkscape:zoom="85.928571"
     inkscape:cx="8.5012469"
     inkscape:cy="7"
     inkscape:window-width="2488"
     inkscape:window-height="1403"
     inkscape:window-x="2632"
     inkscape:window-y="0"
     inkscape:window-maximized="1"
     inkscape:current-layer="svg1" />
  <path
     style="fill:#000000;stroke-width:0.0116376"
     d="M 7.6720644,11.745223 5.696601,9.7697601 3.8113269,11.655007 1.9260528,13.540254 1.3965087,13.010806 0.86696459,12.481358 2.7522687,10.596027 4.6375729,8.7106963 2.7522872,6.8254377 0.8670016,4.940179 1.3965112,4.4106694 1.9260207,3.8811599 3.8113064,5.7664186 5.696592,7.6516772 7.5906375,5.7576584 9.4846831,3.8636395 10.014136,4.3931881 10.543588,4.9227368 8.6496039,6.8167214 6.7556194,8.710706 l 1.9754593,1.975485 1.9754593,1.975485 -0.529505,0.529505 -0.5295053,0.529506 z"
     id="path1" />
  <path
     style="fill:#000000;stroke-width:0.0116376"
     d="m 11.923045,5.5074813 3.52e-4,-0.6837074 0.933195,-0.7971737 c 1.17616,-1.0047249 1.37123,-1.1940373 1.4915,-1.4474825 0.06917,-0.1457704 0.08144,-0.2104087 0.082,-0.4319855 4.85e-4,-0.1931032 -2.75e-4,-0.1994103 -0.03174,-0.2634922 -0.07864,-0.160137 -0.264784,-0.2546331 -0.500751,-0.2542078 -0.36256,6.534e-4 -0.574725,0.2065624 -0.696255,0.6757244 -0.03147,0.1214777 -0.0429,0.1505668 -0.05769,0.1467177 -0.02078,-0.00541 -1.376045,-0.521583 -1.381691,-0.5262399 -0.002,-0.00165 0.01299,-0.056475 0.0333,-0.1218427 0.224752,-0.723429 0.692886,-1.22260272 1.362464,-1.45280395 0.268199,-0.0922067 0.523394,-0.13112985 0.859737,-0.13112985 0.525339,0 0.938524,0.11170401 1.303923,0.35251431 0.146176,0.0963345 0.366052,0.31547615 0.462945,0.46139729 0.172491,0.2597739 0.266502,0.5425829 0.291899,0.8781108 0.04171,0.5510649 -0.138188,1.0663264 -0.537213,1.53866 -0.228582,0.2705774 -0.530562,0.5390189 -1.177314,1.046559 -0.202293,0.1587499 -0.370668,0.293267 -0.374166,0.2989271 -0.0037,0.00594 0.461849,0.010291 1.099896,0.010291 h 1.106256 V 5.498753 6.1911886 h -2.135494 -2.135495 z"
     id="path2" />
</svg>
